<svg id="Layer_3" enable-background="new 0 0 64 64" height="512" viewBox="0 0 64 64" width="512" xmlns="http://www.w3.org/2000/svg" fill="#A0A0A0"><g><path d="m62 52.905h-1v-30c0-2.206-1.794-4-4-4h-14.861l1.385-2h1.476c.553 0 1-.447 1-1v-4c0-.553-.447-1-1-1h-4v-2c0-1.311-.642-2.466-1.619-3.195.383-.504.619-1.125.619-1.805 0-1.654-1.346-3-3-3s-3 1.346-3 3c0 .68.236 1.301.619 1.805-.977.73-1.619 1.884-1.619 3.195v2h-2v-2c0-1.311-.642-2.466-1.619-3.195.383-.504.619-1.125.619-1.805 0-1.654-1.346-3-3-3s-3 1.346-3 3c0 .68.236 1.301.619 1.805-.977.73-1.619 1.884-1.619 3.195v2h-4c-.553 0-1 .447-1 1v4c0 .553.447 1 1 1h1.476l1.385 2h-14.861c-2.206 0-4 1.794-4 4v30h-1c-.553 0-1 .447-1 1v4c0 2.757 2.243 5 5 5h52c2.757 0 5-2.243 5-5v-4c0-.552-.447-1-1-1zm-25-50c.552 0 1 .448 1 1s-.448 1-1 1-1-.448-1-1 .448-1 1-1zm-2 6c0-1.103.897-2 2-2s2 .897 2 2v2h-4zm-8-6c.552 0 1 .448 1 1s-.448 1-1 1-1-.448-1-1 .448-1 1-1zm-2 6c0-1.103.897-2 2-2s2 .897 2 2v2h-4zm-5 6v-2h24v2zm9.293 20.707 4 4c.191.191.447.293.707.293.129 0 .259-.024.383-.076.374-.154.617-.519.617-.924v-9.688l2.986-4.312h17.014v24h-46v-24h17.014l2.986 4.313v5.688c0 .265.105.519.293.706zm3.885-7.276c-.116.167-.178.366-.178.569v7.586l-2-2v-5.586c0-.203-.063-.402-.178-.569l-7.914-11.431h18.182zm-28.178-5.431c0-1.103.897-2 2-2h16.245l1.385 2h-16.63c-.553 0-1 .447-1 1v26c0 .553.447 1 1 1h48c.553 0 1-.447 1-1v-26c0-.553-.447-1-1-1h-16.63l1.385-2h16.245c1.103 0 2 .897 2 2v30h-54zm56 35c0 1.654-1.346 3-3 3h-52c-1.654 0-3-1.346-3-3v-3h58z"/><path d="m55 56.905h2v2h-2z"/><path d="m51 56.905h2v2h-2z"/><path d="m32 46.905c1.654 0 3-1.346 3-3s-1.346-3-3-3-3 1.346-3 3 1.346 3 3 3zm0-4c.552 0 1 .448 1 1s-.448 1-1 1-1-.448-1-1 .448-1 1-1z"/><path d="m43.379 2.405h4.243v2h-4.243z" transform="matrix(.707 -.707 .707 .707 10.919 33.171)"/><path d="m45 6.905h4v2h-4z"/><path d="m17.5 1.284h2v4.243h-2z" transform="matrix(.707 -.707 .707 .707 3.011 14.079)"/><path d="m15 6.905h4v2h-4z"/><path d="m26 26.905h-14c-.553 0-1 .447-1 1v18c0 .553.447 1 1 1h14c.553 0 1-.447 1-1v-18c0-.552-.447-1-1-1zm-1 18h-12v-16h12z"/><path d="m38 46.905h14c.553 0 1-.447 1-1v-18c0-.553-.447-1-1-1h-14c-.553 0-1 .447-1 1v18c0 .553.447 1 1 1zm1-18h12v16h-12z"/><path d="m18 41.905h2v-2h1c.404 0 .77-.243.924-.617.155-.374.069-.804-.217-1.09l-2.293-2.293h2.586v-2h-2v-2h-2v2h-1c-.404 0-.77.243-.924.617-.155.374-.069.804.217 1.09l2.293 2.293h-2.586v2h2z"/><path d="m46 31.905h-2v2h-1c-.404 0-.77.243-.924.617-.155.374-.069.804.217 1.09l2.293 2.293h-2.586v2h2v2h2v-2h1c.404 0 .77-.243.924-.617.155-.374.069-.804-.217-1.09l-2.293-2.293h2.586v-2h-2z"/></g></svg>